<svg xmlns="http://www.w3.org/2000/svg" viewBox="0 0 960 540">
  <defs>
    <linearGradient id="bg" x1="0" y1="0" x2="1" y2="1"><stop stop-color="#0a0d10"/><stop offset="1" stop-color="#17191b"/></linearGradient>
    <filter id="glow"><feGaussianBlur stdDeviation="3" result="b"/><feMerge><feMergeNode in="b"/><feMergeNode in="SourceGraphic"/></feMerge></filter>
  </defs>
  <rect width="960" height="540" fill="url(#bg)"/>
  <g opacity=".18" stroke="#d8dadb" stroke-width="1">
    <path d="M0 90h960M0 180h960M0 270h960M0 360h960M0 450h960M120 0v540M240 0v540M360 0v540M480 0v540M600 0v540M720 0v540M840 0v540"/>
  </g>
  <g transform="translate(480 270)" fill="none" stroke="#d8dadb">
    <circle r="180" opacity=".34"/>
    <circle r="110" opacity=".22"/>
    <path d="M-250 0h500M0-220v440" opacity=".35"/>
    <path d="M-170 120L-28-18 170-112" opacity=".42"/>
  </g>
  <g filter="url(#glow)" fill="#d8dadb">
    <circle cx="292" cy="334" r="5"/><circle cx="502" cy="250" r="4"/><circle cx="642" cy="184" r="5"/>
    <path d="M640 174l26 10-24 12 5-11z"/>
  </g>
  <g font-family="IBM Plex Mono, Space Mono, monospace" fill="#d8dadb">
    <text x="38" y="56" font-size="18" letter-spacing="8">MSY // TERMINAL</text>
    <text x="38" y="86" font-size="10" opacity=".55" letter-spacing="3">ADS-B TRAFFIC / WEATHER / FAA NAS</text>
    <text x="720" y="488" font-size="11" opacity=".55" letter-spacing="3">KMSY-07A</text>
  </g>
</svg>
