<svg xmlns="http://www.w3.org/2000/svg" viewBox="0 0 960 540">
  <rect width="960" height="540" fill="#f4efe5"/>
  <g opacity=".28" stroke="#1e1b18"><path d="M0 54h960M0 108h960M0 162h960M0 216h960M0 270h960M0 324h960M0 378h960M0 432h960M0 486h960M96 0v540M192 0v540M288 0v540M384 0v540M480 0v540M576 0v540M672 0v540M768 0v540M864 0v540"/></g>
  <text x="72" y="328" fill="#8e3427" font-family="Georgia, 'Times New Roman', serif" font-size="230" letter-spacing="-18">Aa</text>
  <text x="420" y="178" fill="#1e1b18" font-family="Georgia, 'Times New Roman', serif" font-size="58">abstruse</text>
  <text x="424" y="220" fill="#81786c" font-family="monospace" font-size="16" letter-spacing="4">100 QUESTION ESTIMATE</text>
  <rect x="424" y="268" width="330" height="6" fill="#c8bdac"/><rect x="424" y="268" width="226" height="6" fill="#8e3427"/>
  <text x="424" y="322" fill="#484139" font-family="Georgia, 'Times New Roman', serif" font-size="26">etymology · antonyms · word families</text>
  <g font-family="monospace" fill="#1e1b18">
    <text x="38" y="56" font-size="18" letter-spacing="7">LEXICON</text>
    <text x="38" y="86" font-size="10" opacity=".58" letter-spacing="3">VOCABULARY OBSERVATORY</text>
  </g>
</svg>
